<?xml version="1.0" encoding="UTF-8"?>
<!DOCTYPE svg PUBLIC "-//W3C//DTD SVG 1.1//EN" "http://www.w3.org/Graphics/SVG/1.1/DTD/svg11.dtd">
<!-- Creator: CorelDRAW -->
<svg xmlns="http://www.w3.org/2000/svg" xml:space="preserve" width="2953px" height="2480px" version="1.1" shape-rendering="geometricPrecision" text-rendering="geometricPrecision" image-rendering="optimizeQuality" fill-rule="evenodd" clip-rule="evenodd"
viewBox="0 0 2953 2480.52"
 xmlns:xlink="http://www.w3.org/1999/xlink"
 xmlns:xodm="http://www.corel.com/coreldraw/odm/2003">
 <defs>
    <linearGradient id="id0" gradientUnits="userSpaceOnUse" x1="1505.35" y1="1288.76" x2="1511.37" y2="1288.76">
     <stop offset="0" stop-opacity="1" stop-color="#E1926A"/>
     <stop offset="0.45098" stop-opacity="1" stop-color="#C7619D"/>
     <stop offset="0.988235" stop-opacity="1" stop-color="#595DA7"/>
     <stop offset="1" stop-opacity="1" stop-color="#595DA7"/>
    </linearGradient>
    <linearGradient id="id1" gradientUnits="userSpaceOnUse" x1="1505.35" y1="1288.76" x2="1511.37" y2="1288.76">
     <stop offset="0" stop-opacity="1" stop-color="#E1926A"/>
     <stop offset="0.45098" stop-opacity="1" stop-color="#C7619D"/>
     <stop offset="0.988235" stop-opacity="1" stop-color="#595DA7"/>
     <stop offset="1" stop-opacity="1" stop-color="#595DA7"/>
    </linearGradient>
    <linearGradient id="id2" gradientUnits="userSpaceOnUse" x1="1505.35" y1="1288.76" x2="1511.37" y2="1288.76">
     <stop offset="0" stop-opacity="1" stop-color="#E1926A"/>
     <stop offset="0.45098" stop-opacity="1" stop-color="#C7619D"/>
     <stop offset="0.988235" stop-opacity="1" stop-color="#595DA7"/>
     <stop offset="1" stop-opacity="1" stop-color="#595DA7"/>
    </linearGradient>
 </defs>
 <g id="Layer_x0020_1">
  <metadata id="CorelCorpID_0Corel-Layer"/>
  <g id="_105553283280160">
   <path fill="#FFCC2A" d="M2124.52 515.28c157.43,23.14 278.29,158.76 278.29,322.61 0,4.37 -0.11,8.71 -0.29,13.05l-651.64 0c-0.17,-4.34 -0.28,-8.68 -0.28,-13.05 0,-163.85 120.85,-299.47 278.28,-322.61 0.33,-26.12 21.61,-47.21 47.82,-47.21 26.21,0 47.49,21.09 47.82,47.21zm117.14 11.59c105.63,-146.79 -155.68,-137.57 2.34,-269.68 -75.07,137.03 171.07,157.82 -2.34,269.68zm-120.31 -119.56c-131.73,-177.96 148.44,-228.89 -30.61,-391.44 81.6,165.29 -166.73,253.48 30.61,391.44zm-202.18 94.93c117.96,-135.2 -159.3,-181.07 -1.27,-313.17 -85.23,129.06 179.05,186.08 1.27,313.17z"/>
   <g>
    <path fill="white" d="M456.48 1924.48c-123.5,0 -223.63,-100.12 -223.63,-223.64 0,-123.5 100.13,-223.63 223.63,-223.63 123.51,0 223.64,100.13 223.64,223.63 0,123.52 -100.13,223.64 -223.64,223.64zm1070.76 -631.8c6.05,-22.69 8.37,-43.88 8.32,-63.15 -0.06,-18.89 -2.4,-35.91 -5.76,-50.67l0 -0.01 -0.16 -0.69c-8.75,-37.92 -24.12,-60.53 -24.12,-60.53 -49.32,-20.33 -82.94,-70.76 -83.6,-126.7 -0.07,-6.07 0.23,-12.18 0.97,-18.35 8.16,-69.56 65.59,-124.36 132.13,-125.31l681.15 -9.66c4.09,0 8.11,0 12.05,0l440.26 0c10.31,0 20.34,12.68 25.8,21.43 12.28,19.67 -2.67,51.85 -22.41,51.85l-347.55 0c-15.94,0 -29.02,10.92 -29.5,26.88l-0.03 -0.97c-0.51,16.58 12.79,32.72 29.38,32.72l192.51 0c19.75,0 34.7,24.85 22.42,44.52 -5.47,8.75 -15.49,14.1 -25.8,14.1l-288.79 0c-4.32,0 -8.72,0 -13.16,0l-285.12 0c-32.53,0 -57.71,18.93 -53.24,51.36 3.72,26.92 28.27,36.58 55.44,36.58l494.65 0c37.25,0 71.64,29.09 82.02,64.86 15.46,53.34 -25.66,111 -77.9,111l-488.86 0c-17.06,0 -32.74,10.66 -36.94,27.21 -6.06,23.77 12.06,46.08 34.66,46.08l424.34 0c19.35,0 35.03,19.17 33.77,38.85 -1.12,17.51 -16.61,34.42 -34.16,34.42l-422.01 0c-15.4,0 -27.09,5.09 -23.09,20.79 2.11,8.32 9.9,8.53 18.43,8.53 0.46,0 0.91,0 1.37,0l311.72 0c20.94,0 36.38,29.37 18.55,48.52 -5.94,6.39 -14.57,10.1 -23.27,10.1l-83.05 0c-14.05,0 -22.48,19.05 -14.77,30.79l0.35 3.99c3.25,4.95 8.8,9.19 14.72,9.19l246.73 0c14.39,0 26.18,14.7 26.38,28.93 0.19,13.99 -11.99,29.69 -25.97,29.69l-191.66 0c-17.14,0 -29.87,10.14 -26.07,26.88l0.13 -5.25c2.73,12.02 13.43,22.34 25.75,22.34l128.24 0c22.38,0 40.1,14.73 34.53,37.93 -3.5,14.6 -17.44,20.69 -32.46,20.69l-138.95 0c-8.14,0 -15.23,9.94 -17.22,17.82l-0.11 4.79c-2.81,11.19 5.65,21.36 17.18,21.36l209.18 0c16.76,0 29.99,18.87 25.51,36.14 -2.82,10.84 -13.4,22.48 -24.6,22.48l-252.27 0c-5.79,0 -11.31,2.07 -15.26,6.32l-0.33 0.01c-12.3,13.27 -2.89,37.64 15.18,37.64l100.48 0c14.38,0 26.16,0.04 26.37,14.27 0.2,14 -11.98,15.04 -25.98,15.04l-266.06 0c-12.41,1.2 -24.25,1.79 -35.58,1.79 -126.09,0 -186.26,-72.36 -208.22,-162.04 0.75,-0.01 1.53,-0.03 2.34,-0.03 5.02,0 10.79,0.28 16.98,0.55 6.2,0.26 12.81,0.52 19.51,0.52 12.26,0 24.82,-0.89 35.68,-4.33 18.69,61.07 75.48,105.49 142.66,105.49 3.77,0 7.57,-0.13 11.39,-0.43 70.69,-5.25 129.04,-61.29 136.84,-131.74 9.94,-89.98 -60.25,-166.16 -148.23,-166.16 -11.78,0 -23.22,1.43 -34.22,4.01 -3.59,1.45 -7.43,2.36 -11.44,2.67l5.71 51.81 59.46 43.39c0.21,0.02 0.43,0.02 0.65,0.02 0.55,0 1.09,-0.02 1.65,-0.05 0.54,-0.01 1.09,-0.03 1.63,-0.03 0.63,0 1.26,0.02 1.89,0.11 39.34,4.61 67.39,41.02 62.65,81.35 -4.41,37.49 -35.56,65.03 -71.53,65.03 -2.73,0 -5.5,-0.17 -8.28,-0.49 -26.7,-3.13 -47.91,-21.35 -57.48,-45.09l-67.64 -45.51 -1.64 1.53c-1.1,1.73 -2.32,3.34 -3.61,4.83 -8.13,9.41 -19.79,14.42 -32.56,16.02 -65.41,8.16 -123.11,11.45 -173.6,11.45 -205.78,0 -291.81,-54.51 -291.81,-54.51l-648.01 0c-8.08,0 -14.85,-1.67 -15.4,-9.71 -6.12,-86.47 -54.33,-156.69 -123.89,-195.17 -37.3,-20.63 -80.72,-32.14 -127.1,-32.14 -121.3,0 -222.51,82.21 -246.33,199.64 -5.81,28.65 -31.34,49.04 -60.57,49.04 -2.94,0 -5.92,-0.21 -8.91,-0.63 -31.77,-4.5 -53.95,-33.8 -52.97,-65.85 10.51,-345.82 373.55,-350.69 394.02,-350.69 0.59,0 0.9,0 0.9,0 31.12,-233.42 175.85,-365.76 213.22,-395.99 2.5,-2.02 3.8,-4.89 3.87,-7.84 0.06,-2.5 -0.76,-5.05 -2.5,-7.12 -0.11,-0.12 -0.21,-0.25 -0.33,-0.37l-23.09 -0.23c-66.26,-128.94 10.74,-250.5 10.74,-250.5l112.51 -1.55c7.49,-0.56 15,-0.84 22.47,-0.84 44.6,0 88.75,9.75 129.35,28.67l106.2 49.48c33.15,15.46 57.36,45.3 65.65,80.91l1.12 4.86 -114.72 -33.26 136.84 65.35c5.3,-2.64 11.15,-4.23 17.39,-4.23 22.75,0 41.2,19.63 41.2,43.87 0,24.23 -18.45,43.88 -41.2,43.88 -19.08,0 -34.96,-13.89 -39.65,-32.65l-194.06 -83.43c-10.95,-4.72 -19.77,-13.3 -24.79,-24.11l-3.41 -7.33 0.44 -1.76c0,-3.39 -2.96,-5.66 -6.57,-6.11 -0.21,-0.03 -0.44,-0.04 -0.66,-0.04 -4.47,0 -5.96,5.94 -5.96,5.94l-10.5 28.5c-1.87,11.02 3.71,22.05 13.74,26.99l140.81 69.5c4.71,2.31 4.65,9.7 -0.12,11.9 -49.27,22.67 -226.68,121.38 -222.06,352.77 5.38,268.63 282.96,333.01 282.96,333.01l318.76 0c-44.77,-161.21 116.4,-275.65 116.4,-275.65 0.19,-0.69 0.38,-1.39 0.57,-2.08zm-1070.76 259.01c-82.37,0 -149.16,66.78 -149.16,149.15 0,82.38 66.79,149.17 149.16,149.17 82.39,0 149.17,-66.79 149.17,-149.17 0,-82.37 -66.78,-149.15 -149.17,-149.15zm2074.23 281.42c-14.77,0 -26.73,-11.96 -26.73,-26.73 0,-14.76 11.96,-26.74 26.73,-26.74 14.76,0 26.74,11.98 26.74,26.74 0,14.77 -11.98,26.73 -26.74,26.73zm-2074.23 -48.44c-46.29,0 -83.81,-37.53 -83.81,-83.83 0,-46.28 37.52,-83.81 83.81,-83.81 46.3,0 83.82,37.53 83.82,83.81 0,46.3 -37.52,83.83 -83.82,83.83zm2136.32 -97.02l-139.73 0c-15.33,0 -27.88,-6.65 -27.88,-21.98 0,-15.33 12.55,-21.98 27.88,-21.98l139.73 0c15.33,0 27.87,6.65 27.87,21.98 0,15.33 -12.54,21.98 -27.87,21.98zm-34.21 -160.78c-14.77,0 -26.74,-11.98 -26.74,-26.74 0,-14.77 11.97,-26.74 26.74,-26.74 14.75,0 26.73,11.97 26.73,26.74 0,14.76 -11.98,26.74 -26.73,26.74zm-81.59 -0.43l-139.73 0c-15.35,0 -27.88,-13.98 -27.88,-29.31 0,-15.33 12.53,-29.31 27.88,-29.31l139.73 0c15.33,0 27.86,13.98 27.86,29.31 0,15.33 -12.53,29.31 -27.86,29.31zm235.78 -82.31l-224.16 -1.9c-0.26,0 -0.53,0.01 -0.79,0.01 -14.98,0 -27.44,-12.03 -27.86,-27.08 -0.43,-15.33 11.75,-28.23 27.08,-28.65l224.16 1.89c0.27,0 0.53,0 0.8,0 14.96,0 27.42,12.01 27.84,27.08 0.44,15.32 -11.74,28.21 -27.07,28.65zm-1353.7 -154.37l-0.98 -0.99 0.98 -1 1 1 -1 0.99zm170.56 -111.6c3.5,14.8 5.94,32.05 5.92,51.37l-5.92 -51.37zm1357.81 -33.59l-302.28 -1.04c-0.33,0.01 -0.69,0.01 -1.02,0.01 -22.94,0 -41.99,-18.48 -42.53,-41.54 -0.56,-23.4 18.13,-42.99 41.53,-43.55l302.26 1.03c0.34,0 0.69,-0.02 1.03,-0.02 22.94,0 41.99,18.49 42.53,41.55 0.56,23.39 -18.13,43 -41.52,43.56zm-264.67 -125.47c-14.76,0 -26.73,-11.96 -26.73,-26.73 0,-14.76 11.97,-26.74 26.73,-26.74 14.78,0 26.75,11.98 26.75,26.74 0,14.77 -11.97,26.73 -26.75,26.73zm-1966.83 -147c0,0 -73.98,-42.5 -74.26,-125.38 -0.35,-98.42 85.98,-126.28 85.98,-126.28 -77.8,134.28 -11.72,251.66 -11.72,251.66z"/>
   </g>
   <path fill="#3F4096" fill-rule="nonzero" d="M699.71 878.31c-0.07,-2.46 -1.01,-4.94 -2.83,-6.92 0,0 0.12,-0.07 0.33,-0.2 1.74,2.07 2.56,4.62 2.5,7.12z"/>
   <polygon fill="url(#id0)" points="1359.08,1289.76 1360.08,1288.76 1359.08,1287.77 1358.1,1288.76 "/>
   <polygon fill="url(#id1)" points="1359.08,1289.76 1360.08,1288.76 1359.08,1287.77 1358.1,1288.76 "/>
   <polygon fill="url(#id2)" points="1359.08,1289.76 1360.08,1288.76 1359.08,1287.77 1358.1,1288.76 "/>
   <g id="_105553283280416">
    <path fill="white" fill-rule="nonzero" d="M254.52 1969.74c-5.17,0 -11.13,1.07 -18.07,3.13 -6.84,2.15 -13.87,6.05 -21.01,11.92 -7.13,5.76 -14.16,13.97 -21,24.42 -6.84,10.55 -13,24.14 -18.47,40.84 -5.47,16.71 -9.87,36.93 -13.19,60.77 -3.32,23.94 -4.98,52.08 -4.98,84.52 0,30.87 1.66,57.64 4.98,80.41 3.32,22.67 7.82,42.01 13.48,57.94 5.57,15.92 12.02,29.01 19.25,39.08 7.33,10.16 14.95,17.98 22.96,23.64 8.01,5.57 16.03,9.48 24.04,11.53 8.01,2.15 15.53,3.23 22.57,3.23 7.52,0 15.04,-0.98 22.67,-2.94 7.62,-1.85 15.14,-4.69 22.47,-8.3 7.32,-3.62 14.36,-8.01 21.2,-13.09 6.74,-5.18 12.99,-11.14 18.76,-17.79l12.8 12.9c-5.67,7.04 -12.61,14.27 -20.62,21.59 -8.01,7.33 -17.29,14.07 -27.84,20.03 -10.66,6.06 -22.48,10.95 -35.67,14.76 -13.19,3.81 -27.74,5.76 -43.77,5.76 -25.01,0 -48.26,-4.79 -69.76,-14.36 -21.4,-9.58 -40.15,-24.33 -56.08,-44.55 -15.93,-20.13 -28.43,-45.93 -37.52,-77.39 -8.99,-31.46 -13.58,-69.17 -13.58,-113.04 0,-41.23 4.79,-77.38 14.36,-108.55 9.48,-31.07 22.47,-57.06 38.89,-77.96 16.41,-20.91 35.66,-36.64 57.84,-47.2 22.18,-10.64 45.73,-15.92 70.74,-15.92 16.61,0 31.65,1.56 45.33,4.69 13.68,3.22 25.41,7.81 35.37,13.78 9.87,6.05 17.59,13.48 23.06,22.37 5.37,8.79 8.11,18.86 8.11,30.19 0,5.08 -0.88,10.55 -2.54,16.12 -1.76,5.67 -4.4,10.85 -7.92,15.44 -3.51,4.69 -7.81,8.5 -12.99,11.53 -5.18,2.93 -11.14,4.39 -18.08,4.39 -6.05,0 -10.84,-1.36 -14.16,-4 -3.33,-2.64 -5.77,-6.16 -7.43,-10.55 -1.56,-4.4 -2.64,-9.48 -3.12,-15.05 -0.49,-5.67 -0.79,-11.43 -0.98,-17.29 -0.2,-5.96 -0.69,-11.73 -1.37,-17.4 -0.59,-5.57 -1.95,-10.64 -4.01,-15.04 -1.95,-4.3 -4.88,-7.92 -8.69,-10.55 -3.81,-2.64 -9.19,-4.01 -16.03,-4.01zm312.88 166.58c7.22,-11.04 14.94,-21.1 23.15,-29.99 3.42,-3.91 7.13,-7.62 11.14,-11.24 4,-3.61 8.21,-6.84 12.5,-9.67 4.3,-2.93 8.7,-5.18 13.29,-6.94 4.59,-1.66 9.19,-2.54 13.78,-2.54 9.67,0 17.29,2.94 22.86,8.7 5.57,5.86 8.31,13.97 8.31,24.52 0,6.45 -0.49,12.71 -1.57,18.76 -1.07,5.96 -3.12,13.29 -6.15,21.89l-8.01 0c-1.18,-5.96 -3.81,-10.85 -8.02,-14.76 -4.2,-3.9 -10.35,-5.86 -18.36,-5.86 -5.87,0 -11.73,1.08 -17.4,3.32 -5.76,2.15 -11.33,4.89 -16.8,8.11 -5.37,3.23 -10.55,6.74 -15.44,10.56 -4.88,3.9 -9.28,7.52 -13.28,10.94l0 185.73c0,2.54 -0.4,5.47 -1.18,8.89 -0.78,3.42 -2.64,6.65 -5.57,9.77 -2.93,3.03 -7.33,5.67 -13.19,7.82 -5.76,2.25 -13.77,3.32 -23.84,3.32 -10.16,0 -18.07,-1.17 -23.93,-3.61 -5.87,-2.35 -10.26,-5.18 -13.29,-8.4 -3.13,-3.23 -4.98,-6.65 -5.77,-10.07 -0.78,-3.42 -1.17,-6.15 -1.17,-8.3l0 -220.91c0,-5.57 -1.27,-10.36 -3.81,-14.46 -2.64,-4.1 -6.94,-6.16 -12.99,-6.16 -3.33,0 -6.06,0.49 -8.31,1.66 -2.34,1.18 -4.79,2.84 -7.52,4.89l-5.96 -7.13c4.4,-3.62 9.28,-7.23 14.75,-10.75 5.38,-3.52 11.34,-6.64 17.59,-9.28 6.25,-2.74 13.09,-4.89 20.32,-6.65 7.23,-1.66 14.85,-2.54 22.86,-2.54 8.21,0 15.25,1.08 21.11,3.33 5.76,2.15 10.55,4.98 14.26,8.59 3.71,3.52 6.65,7.43 8.7,11.83 2.15,4.39 3.71,8.79 4.78,13.28 1.08,4.5 1.67,8.8 1.86,12.9 0.2,4.1 0.3,7.62 0.3,10.45zm318.82 210.95c0,2.54 -0.48,5.47 -1.27,9.08 -0.87,3.52 -2.93,6.84 -6.05,9.97 -3.13,3.13 -7.62,5.86 -13.58,8.01 -5.96,2.25 -13.97,3.32 -24.04,3.32 -10.16,0 -18.07,-1.17 -23.74,-3.61 -5.77,-2.35 -10.06,-5.18 -12.9,-8.4 -2.83,-3.23 -4.69,-6.65 -5.27,-10.07 -0.69,-3.42 -1.08,-6.15 -1.08,-8.3l0 -220.91c0,-5.57 -1.27,-10.36 -3.81,-14.46 -2.64,-4.1 -6.94,-6.16 -12.99,-6.16 -3.32,0 -6.06,0.49 -8.31,1.66 -2.34,1.18 -4.79,2.84 -7.52,4.89l-5.96 -7.13c4.39,-3.62 9.28,-7.23 14.75,-10.75 5.37,-3.52 11.34,-6.64 17.59,-9.28 6.25,-2.74 13.09,-4.89 20.32,-6.65 7.23,-1.66 14.85,-2.54 22.86,-2.54 12.41,0 22.08,1.67 28.92,4.99 6.94,3.32 11.92,7.42 15.15,12.31 3.32,4.88 5.27,10.06 5.96,15.63 0.58,5.47 0.97,10.36 0.97,14.56l0 223.84zm-96.72 -336.59c0,-5.38 1.17,-10.46 3.52,-15.34 2.44,-4.89 5.76,-9.09 10.06,-12.7 4.3,-3.62 9.18,-6.55 14.85,-8.6 5.67,-2.05 11.82,-3.13 18.47,-3.13 6.44,0 12.5,1.08 18.17,3.13 5.66,2.05 10.55,4.98 14.75,8.6 4.2,3.61 7.52,7.81 9.87,12.7 2.34,4.88 3.62,9.96 3.62,15.34 0,5.57 -1.28,10.65 -3.62,15.43 -2.35,4.79 -5.67,8.9 -9.87,12.51 -4.2,3.52 -9.09,6.35 -14.75,8.4 -5.67,2.15 -11.73,3.13 -18.17,3.13 -6.65,0 -12.8,-0.98 -18.47,-3.13 -5.67,-2.05 -10.55,-4.88 -14.85,-8.4 -4.3,-3.61 -7.62,-7.72 -10.06,-12.51 -2.35,-4.78 -3.52,-9.86 -3.52,-15.43zm346.87 88.13c-4.4,0 -8.6,0.58 -12.51,1.76 -3.91,1.17 -7.32,3.02 -10.45,5.57 -3.03,2.53 -5.38,5.86 -7.13,9.76 -1.76,3.91 -2.54,8.5 -2.54,13.88 0,7.42 2.63,14.85 8.1,22.18 5.48,7.32 12.22,14.95 20.33,22.86 8.11,7.91 16.9,16.12 26.38,24.62 9.38,8.5 18.17,17.49 26.28,26.87 8.11,9.48 14.95,19.54 20.32,30.29 5.47,10.65 8.21,22.08 8.21,34.29 0,13.78 -2.35,25.99 -7.03,36.64 -4.7,10.75 -11.34,19.74 -20.03,27.16 -8.7,7.53 -19.15,13.19 -31.46,17.1 -12.31,3.91 -25.99,5.86 -41.14,5.86 -13.19,0 -25.11,-1.85 -35.76,-5.57 -10.65,-3.71 -20.22,-8.3 -28.43,-13.77 -8.3,-5.47 -15.44,-11.24 -21.4,-17.3 -5.86,-6.15 -10.45,-11.62 -13.67,-16.61l9.96 -7.13c2.54,2.83 5.67,5.96 9.48,9.28 3.81,3.33 8.01,6.45 12.7,9.28 4.69,2.84 9.67,5.18 15.05,7.04 5.37,1.76 10.74,2.74 16.31,2.74 13.78,0 25.01,-3.33 33.81,-9.87 8.79,-6.65 13.19,-16.42 13.19,-29.41 0,-7.23 -2.44,-14.75 -7.23,-22.47 -4.79,-7.72 -10.75,-15.64 -17.98,-23.84 -7.33,-8.21 -15.14,-16.71 -23.55,-25.5 -8.4,-8.8 -16.22,-17.88 -23.44,-27.17 -7.24,-9.38 -13.29,-19.05 -17.98,-28.92 -4.79,-9.96 -7.23,-20.22 -7.23,-30.97 0,-12.01 2.44,-22.47 7.33,-31.46 4.88,-8.99 11.33,-16.41 19.44,-22.27 8.11,-5.96 17.39,-10.36 27.84,-13.39 10.36,-2.93 21.11,-4.4 32.15,-4.4 12.8,0 24.42,1.18 34.98,3.42 10.45,2.35 19.44,5.77 26.96,10.46 7.53,4.69 13.39,10.55 17.49,17.58 4.1,7.04 6.16,15.25 6.16,24.63 0,7.23 -2.35,13.58 -7.13,18.95 -4.79,5.28 -11.44,8.01 -20.04,8.01 -8.2,0 -14.45,-1.76 -18.75,-5.37 -4.3,-3.52 -6.45,-8.31 -6.45,-14.46 0,-4.01 0.97,-7.13 3.03,-9.38 1.95,-2.35 4.2,-4.2 6.74,-5.57 2.44,-1.46 4.69,-2.74 6.64,-3.71 2.05,-1.08 3.03,-2.45 3.03,-4.2 0,-5.38 -2.83,-9.58 -8.6,-12.71 -5.66,-3.22 -13.09,-4.78 -21.98,-4.78z"/>
    <path fill="#FFCC2A" fill-rule="nonzero" d="M1669.17 2176.09l-113.04 0 0 159.45c0,14.76 -3.81,25.4 -11.53,32.05 -7.82,6.74 -19.54,10.06 -35.37,10.06 -16.02,0 -27.85,-3.32 -35.56,-10.06 -7.63,-6.65 -11.44,-17.29 -11.44,-32.05l0 -159.45 -44.65 0 0 -25.11 44.65 0 0 -180.07c-6.05,0.59 -13.09,1.66 -21,3.23 -7.92,1.66 -16.03,4 -24.33,6.93 -8.31,2.93 -16.41,6.45 -24.52,10.46 -8.01,4 -15.15,8.69 -21.4,13.97 -6.35,5.37 -11.43,11.33 -15.34,17.88 -3.91,6.64 -5.86,13.68 -5.86,21.4 0,6.05 0.78,10.94 2.44,14.55 1.56,3.62 3.42,6.35 5.57,8.21 2.05,1.76 4.2,2.93 6.45,3.42 2.15,0.49 3.71,0.69 4.69,0.69 4.78,0 8.69,-0.79 11.72,-2.45 3.13,-1.66 5.86,-3.32 8.31,-5.18 2.54,-1.75 4.88,-3.51 7.03,-5.08 2.25,-1.66 4.69,-2.44 7.62,-2.44 2.25,0 4.69,0.49 7.23,1.57 2.64,1.07 4.99,2.73 7.23,4.98 2.15,2.34 4.01,5.27 5.57,8.99 1.47,3.81 2.25,8.3 2.25,13.67 0,7.63 -1.47,14.27 -4.4,19.84 -2.93,5.66 -6.74,10.26 -11.43,13.87 -4.69,3.62 -10.06,6.35 -16.02,8.21 -6.06,1.76 -12.02,2.73 -17.98,2.73 -9.09,0 -17.39,-1.56 -24.72,-4.78 -7.33,-3.13 -13.58,-7.43 -18.76,-13 -5.18,-5.57 -9.08,-12.01 -11.72,-19.34 -2.64,-7.33 -4.01,-15.34 -4.01,-23.84 0,-22.38 6.16,-41.33 18.47,-56.96 12.31,-15.73 29.11,-28.53 50.51,-38.5 21.4,-10.06 46.31,-17.39 74.74,-21.98 28.43,-4.5 58.82,-6.84 91.26,-6.84 13.19,0 26.96,0.19 41.23,0.39 14.36,0.29 27.85,0.78 40.55,1.37 12.7,0.58 23.84,1.17 33.61,1.95 9.77,0.78 16.61,1.66 20.61,2.64 3.81,0.88 6.84,1.95 9.19,3.13 2.24,1.17 4,2.44 5.08,4 1.17,1.47 1.95,3.23 2.34,5.28 0.39,1.95 0.59,4.3 0.59,7.03 0,2.25 -0.29,4.79 -0.88,7.53 -0.59,2.83 -1.47,5.37 -2.54,7.81 -1.17,2.35 -2.64,4.4 -4.3,6.16 -1.76,1.66 -3.81,2.54 -6.35,2.54 -1.47,0 -3.23,-0.69 -4.98,-2.05 -1.86,-1.27 -4.4,-3.03 -7.72,-5.08 -3.33,-2.15 -7.82,-4.3 -13.49,-6.65 -5.66,-2.25 -13.19,-4.49 -22.57,-6.54 -9.47,-2.15 -21.2,-3.82 -35.27,-5.18 -13.97,-1.37 -30.97,-1.96 -50.8,-1.96l0 183.49 113.04 0 0 25.11zm122.25 50.42c0,-25.02 3.62,-46.9 10.85,-65.66 7.23,-18.86 16.9,-34.49 29.01,-47.09 12.12,-12.61 26.19,-22.09 42.31,-28.34 16.02,-6.35 32.73,-9.48 50.32,-9.48 17.58,0 34.39,2.94 50.41,8.7 16.03,5.86 30.09,14.75 42.21,26.77 12.11,12.02 21.79,27.26 29.02,45.73 7.33,18.36 10.94,40.15 10.94,65.36 0,25.01 -3.61,47.09 -10.94,66.44 -7.23,19.25 -16.91,35.46 -29.02,48.65 -12.12,13.1 -26.18,23.16 -42.21,29.9 -16.02,6.74 -32.83,10.16 -50.41,10.16 -17.59,0 -34.3,-3.22 -50.32,-9.57 -16.12,-6.45 -30.19,-15.93 -42.31,-28.53 -12.11,-12.6 -21.78,-28.33 -29.01,-47.19 -7.23,-18.96 -10.85,-40.84 -10.85,-65.85zm175.96 -2.84c0,-15.34 -0.48,-29.99 -1.56,-44.26 -0.98,-14.16 -3.03,-26.87 -6.15,-37.91 -3.03,-11.04 -7.43,-19.93 -13.09,-26.48 -5.77,-6.64 -13.29,-9.86 -22.67,-9.86 -9.38,0 -16.91,3.42 -22.57,10.45 -5.77,6.94 -10.16,16.12 -13.19,27.46 -3.03,11.33 -5.08,24.32 -6.06,38.78 -0.88,14.47 -1.37,29.41 -1.37,44.66 0,15.24 0.49,30.19 1.37,44.74 0.98,14.66 3.03,27.65 6.06,39.09 3.03,11.52 7.42,20.71 13.19,27.64 5.66,6.94 13.19,10.46 22.57,10.46 9.38,0 16.9,-3.62 22.67,-10.85 5.66,-7.32 10.06,-16.8 13.09,-28.62 3.12,-11.83 5.17,-25.21 6.15,-40.06 1.08,-14.95 1.56,-30 1.56,-45.24zm210.38 2.84c0,-25.02 3.62,-46.9 10.85,-65.66 7.23,-18.86 16.9,-34.49 29.02,-47.09 12.11,-12.61 26.18,-22.09 42.3,-28.34 16.03,-6.35 32.73,-9.48 50.32,-9.48 17.59,0 34.39,2.94 50.42,8.7 16.02,5.86 30.09,14.75 42.2,26.77 12.12,12.02 21.79,27.26 29.02,45.73 7.33,18.36 10.94,40.15 10.94,65.36 0,25.01 -3.61,47.09 -10.94,66.44 -7.23,19.25 -16.9,35.46 -29.02,48.65 -12.11,13.1 -26.18,23.16 -42.2,29.9 -16.03,6.74 -32.83,10.16 -50.42,10.16 -17.59,0 -34.29,-3.22 -50.32,-9.57 -16.12,-6.45 -30.19,-15.93 -42.3,-28.53 -12.12,-12.6 -21.79,-28.33 -29.02,-47.19 -7.23,-18.96 -10.85,-40.84 -10.85,-65.85zm175.97 -2.84c0,-15.34 -0.49,-29.99 -1.57,-44.26 -0.97,-14.16 -3.02,-26.87 -6.15,-37.91 -3.03,-11.04 -7.43,-19.93 -13.09,-26.48 -5.77,-6.64 -13.29,-9.86 -22.67,-9.86 -9.38,0 -16.9,3.42 -22.57,10.45 -5.76,6.94 -10.16,16.12 -13.19,27.46 -3.03,11.33 -5.08,24.32 -6.06,38.78 -0.88,14.47 -1.36,29.41 -1.36,44.66 0,15.24 0.48,30.19 1.36,44.74 0.98,14.66 3.03,27.65 6.06,39.09 3.03,11.52 7.43,20.71 13.19,27.64 5.67,6.94 13.19,10.46 22.57,10.46 9.38,0 16.9,-3.62 22.67,-10.85 5.66,-7.32 10.06,-16.8 13.09,-28.62 3.13,-11.83 5.18,-25.21 6.15,-40.06 1.08,-14.95 1.57,-30 1.57,-45.24zm387.52 -6.06c0,-2.05 0,-6.35 0,-12.7 0,-6.45 -0.2,-13.77 -0.59,-22.08 -0.39,-8.3 -0.98,-17.1 -1.96,-26.48 -0.97,-9.38 -2.54,-17.97 -4.59,-25.99 -4.59,-5.96 -9.67,-11.23 -15.34,-15.92 -5.57,-4.69 -12.8,-7.04 -21.59,-7.04 -14.85,0 -25.79,9.78 -32.73,29.22 -7.04,19.44 -10.45,49.63 -10.45,90.47 0,17.88 0.78,34.3 2.44,49.24 1.56,14.85 4.1,27.65 7.42,38.3 3.33,10.75 7.62,19.06 12.9,24.92 5.18,5.96 11.43,8.89 18.66,8.89 30.58,0 45.83,-43.58 45.83,-130.83zm-3.43 -125.94c-3.61,-19.05 -8.69,-36.83 -15.14,-53.34 -6.54,-16.51 -14.26,-30.78 -23.35,-42.8 -9.09,-12.01 -19.35,-21.49 -30.88,-28.33 -11.62,-6.94 -24.03,-10.36 -37.41,-10.36 -7.63,0 -14.56,0.98 -20.72,2.84 -6.25,1.95 -11.62,4.2 -16.22,6.74 -4.49,2.64 -8.3,5.08 -11.23,7.52 -3.03,2.35 -5.18,4.1 -6.45,5.28l-7.43 -10.07c4.5,-5.86 10.16,-11.43 16.71,-16.61 6.55,-5.08 13.78,-9.47 21.59,-13.19 7.82,-3.61 16.12,-6.44 24.82,-8.5 8.6,-2.15 17.29,-3.22 25.89,-3.22 28.24,0 53.05,6.16 74.35,18.47 21.4,12.31 39.28,29.8 53.54,52.27 14.37,22.47 25.11,49.73 32.34,81.58 7.33,31.85 10.95,67.22 10.95,106.2 0,31.46 -3.23,59.11 -9.67,82.95 -6.35,23.94 -15.44,43.87 -27.26,59.99 -11.83,16.12 -26.19,28.24 -43.09,36.35 -16.91,8.11 -35.96,12.21 -57.16,12.21 -14.65,0 -29.6,-2.63 -44.75,-7.91 -15.14,-5.18 -28.92,-13.78 -41.23,-25.6 -12.31,-11.82 -22.37,-27.36 -30.19,-46.51 -7.81,-19.15 -11.72,-42.69 -11.72,-70.54 0,-24.03 3.32,-45.43 10.16,-64.09 6.74,-18.76 15.83,-34.49 27.36,-47.39 11.43,-12.9 24.62,-22.76 39.76,-29.51 15.05,-6.74 30.97,-10.16 47.78,-10.16 6.45,0 12.31,0.49 17.49,1.57 5.08,1.07 9.57,2.34 13.38,3.91 3.91,1.46 7.23,3.12 10.07,4.98 2.83,1.76 5.47,3.61 7.71,5.27z"/>
   </g>
  </g>
 </g>
</svg>
